<svg width="21" height="21" viewBox="0 0 21 21" fill="none" xmlns="http://www.w3.org/2000/svg">
<path d="M15.4177 17.5034C16.5686 17.5034 17.5015 16.5705 17.5015 15.4197C17.5015 14.2689 16.5686 13.3359 15.4177 13.3359C14.2669 13.3359 13.334 14.2689 13.334 15.4197C13.334 16.5705 14.2669 17.5034 15.4177 17.5034Z" stroke="#16161D" stroke-linecap="round" stroke-linejoin="round"/>
<path d="M4.58375 17.5034C5.73458 17.5034 6.6675 16.5705 6.6675 15.4197C6.6675 14.2689 5.73458 13.3359 4.58375 13.3359C3.43293 13.3359 2.5 14.2689 2.5 15.4197C2.5 16.5705 3.43293 17.5034 4.58375 17.5034Z" stroke="#16161D" stroke-linecap="round" stroke-linejoin="round"/>
<path d="M13.334 6.66895H16.668L19.1685 9.16945V13.337H13.334V6.66895Z" stroke="#16161D" stroke-linecap="round" stroke-linejoin="round"/>
<path d="M13.3346 2.5022H0.833496V13.3365H13.3346V2.5022Z" stroke="#16161D" stroke-linecap="round" stroke-linejoin="round"/>
</svg>
