<svg width="25" height="25" viewBox="0 0 25 25" fill="none" xmlns="http://www.w3.org/2000/svg">
<path d="M24.8878 7.34663L24.8878 7.34686C25.0049 9.40998 25.0049 15.59 24.8878 17.6531L24.8878 17.6533C24.7875 19.6529 24.3312 21.4199 22.8759 22.8755L22.8759 22.8755C21.4207 24.3366 19.6541 24.7931 17.655 24.8878L17.6548 24.8878C15.5921 25.0049 9.40788 25.0049 7.34522 24.8878L7.34506 24.8878C5.34591 24.7875 3.58487 24.331 2.12404 22.8754C0.663265 21.4199 0.206895 19.6529 0.112229 17.6534L0.112216 17.6531C-0.0048534 15.59 -0.0048534 9.4044 0.112217 7.34128L0.112225 7.34112C0.212465 5.34143 0.663288 3.57451 2.12404 2.11899C3.58486 0.663401 5.35146 0.206934 7.345 0.112249L7.34522 0.112236C9.40788 -0.00485992 15.5921 -0.00485992 17.6548 0.112237L17.6549 0.112245C19.6541 0.212505 21.4207 0.668983 22.8759 2.12454L22.876 2.12457C24.3367 3.58011 24.7931 5.34706 24.8878 7.34663ZM19.8793 22.2683L19.8794 22.2683C20.9843 21.8251 21.8314 20.9779 22.2689 19.8782C22.597 19.0536 22.7224 17.6618 22.7663 16.2523C22.7978 15.243 22.7874 14.2219 22.779 13.3899C22.7756 13.0592 22.7726 12.7583 22.7726 12.5C22.7726 12.2416 22.7756 11.9408 22.779 11.6102C22.7874 10.7787 22.7978 9.75852 22.7663 8.7498C22.7224 7.34099 22.597 5.94918 22.2689 5.12182L22.2689 5.12173C21.8258 4.0166 20.9788 3.16931 19.8794 2.7317L19.8793 2.73167C19.0549 2.40634 17.6634 2.28089 16.2543 2.23628C15.2376 2.20409 14.209 2.21396 13.3737 2.22198C13.0505 2.22508 12.7562 2.2279 12.5028 2.2279C12.2445 2.2279 11.9437 2.22485 11.6132 2.2215C10.7819 2.21308 9.76191 2.20274 8.75342 2.23419C7.34493 2.2781 5.95343 2.40354 5.12625 2.73169L5.12616 2.73172C4.02128 3.17489 3.17417 4.02215 2.73666 5.12179L2.73663 5.12186C2.41137 5.94641 2.28596 7.3382 2.24135 8.74769C2.20917 9.76459 2.21904 10.7934 2.22705 11.6289C2.23015 11.9522 2.23298 12.2465 2.23298 12.5C2.23298 12.7584 2.22993 13.0592 2.22658 13.3898C2.21816 14.2213 2.20782 15.2415 2.23926 16.2502C2.28317 17.659 2.40858 19.0508 2.73665 19.8782L2.73668 19.8783C3.17976 20.9834 4.02682 21.8307 5.12622 22.2683L5.12629 22.2683C5.95065 22.5937 7.34214 22.7191 8.75132 22.7637C9.76799 22.7959 10.7966 22.786 11.6318 22.778C11.9551 22.7749 12.2494 22.7721 12.5028 22.7721C12.7611 22.7721 13.0618 22.7751 13.3923 22.7785C14.2237 22.7869 15.2437 22.7973 16.2522 22.7658C17.6606 22.7219 19.0522 22.5965 19.8793 22.2683ZM6.11895 12.5C6.11895 8.96556 8.96915 6.11473 12.5028 6.11473C16.0364 6.11473 18.8866 8.96556 18.8866 12.5C18.8866 16.0344 16.0364 18.8853 12.5028 18.8853C8.96915 18.8853 6.11895 16.0344 6.11895 12.5ZM8.31217 12.5C8.31217 14.8118 10.1971 16.6915 12.5028 16.6915C14.8085 16.6915 16.6934 14.8118 16.6934 12.5C16.6934 10.1882 14.8141 8.30845 12.5028 8.30845C10.1915 8.30845 8.31217 10.1882 8.31217 12.5ZM20.6435 5.82813C20.6435 6.64578 19.9852 7.29875 19.1732 7.29875C18.3557 7.29875 17.7029 6.64032 17.7029 5.82813C17.7029 5.01599 18.3612 4.35751 19.1732 4.35751C19.9851 4.35751 20.6435 5.01599 20.6435 5.82813Z" fill="#FAFAFA" stroke="#FAFAFA" stroke-width="0.0488281"/>
</svg>
