<svg width="25" height="25" viewBox="0 0 25 25" fill="none" xmlns="http://www.w3.org/2000/svg">
<path d="M11.1372 18.2559C11.3518 18.6287 11.7418 18.97 12.2279 19.2215C12.7378 19.4853 13.3553 19.6514 13.9919 19.6514C17.7799 19.6514 20.5032 16.168 20.5032 11.8498C20.5032 7.70666 17.1186 4.60764 12.7722 4.60764C10.0699 4.60764 7.99814 5.51444 6.6019 6.91763C5.20584 8.32064 4.48667 10.2184 4.48667 12.1976C4.48667 13.1189 4.73209 14.152 5.17278 15.0461C5.61333 15.9398 6.25048 16.6974 7.03602 17.0634L11.1372 18.2559ZM11.1372 18.2559L11.1255 18.3005L11.0526 18.5791L10.8213 19.4643C10.6461 20.1347 10.4521 20.8781 10.3765 21.1704L10.3764 21.1705C10.0962 22.2464 9.34652 23.5926 8.83761 24.4265C9.99587 24.7827 11.2232 24.9756 12.5 24.9756C19.3918 24.9756 24.9756 19.3918 24.9756 12.5C24.9756 5.60824 19.3918 0.0244141 12.5 0.0244141C5.60824 0.0244141 0.0244141 5.60824 0.0244141 12.5C0.0244141 17.7728 3.29662 22.2801 7.91502 24.1057C7.81078 23.1171 7.71547 21.6175 7.96514 20.5489C8.07857 20.0599 8.44399 18.5074 8.78105 17.0773L9.23035 15.1719L9.37334 14.5659L9.41292 14.3981L9.42329 14.3542L9.42485 14.3476L11.1372 18.2559Z" fill="#FAFAFA" stroke="#FAFAFA" stroke-width="0.0488281"/>
</svg>
