<svg width="21" height="21" viewBox="0 0 21 21" fill="none" xmlns="http://www.w3.org/2000/svg">
<path d="M3 5.3252H4.66665H17.9999" stroke="#16161D" stroke-linecap="round" stroke-linejoin="round"/>
<path d="M7.16697 5.325V3.65835C7.16697 3.21633 7.34256 2.79241 7.65512 2.47985C7.96768 2.16729 8.3916 1.9917 8.83362 1.9917H12.1669C12.6089 1.9917 13.0329 2.16729 13.3454 2.47985C13.658 2.79241 13.8336 3.21633 13.8336 3.65835V5.325M16.3336 5.325V16.9916C16.3336 17.4336 16.158 17.8575 15.8454 18.1701C15.5328 18.4826 15.1089 18.6582 14.6669 18.6582H6.33364C5.89162 18.6582 5.4677 18.4826 5.15514 18.1701C4.84259 17.8575 4.66699 17.4336 4.66699 16.9916V5.325H16.3336Z" stroke="#16161D" stroke-linecap="round" stroke-linejoin="round"/>
<path d="M12.167 9.4917V14.4923" stroke="#16161D" stroke-linecap="round" stroke-linejoin="round"/>
<path d="M8.83301 9.4917V14.4923" stroke="#16161D" stroke-linecap="round" stroke-linejoin="round"/>
</svg>
